<?xml version="1.0" encoding="utf-8"?>
<!-- Generator: Adobe Illustrator 25.2.1, SVG Export Plug-In . SVG Version: 6.00 Build 0)  -->
<svg version="1.1" xmlns="http://www.w3.org/2000/svg" xmlns:xlink="http://www.w3.org/1999/xlink" x="0px" y="0px"
	 viewBox="0 0 1100 800" style="enable-background:new 0 0 1100 800;" xml:space="preserve">
<style type="text/css">
	.st0{display:none;}
	.st1{display:inline;fill:#E6E7E8;}
	.st2{fill:#F7F7F7;}
	.st3{fill:#EAC1A4;}
	.st4{fill:#897F78;}
	.st5{fill:#2F2F35;}
	.st6{fill:#FFFFFF;}
	.st7{fill:#FFB6DE;}
	.st8{fill:#8C004D;}
	.st9{fill:#FF4FAA;}
	.st10{fill:#D9A3A3;}
	.st11{fill:#FF008C;}
</style>
<g id="Background" class="st0">
	<rect class="st1" width="1100" height="800"/>
</g>
<g id="Shadow">
	<g>
		<path class="st2" d="M517,668.1c-29.1,0.1-58.2,0.8-87.3,3.9c-11,1.2-21.7,3.8-32.7,4.8c-21.9,2.1-43.5,6-65.5,7.8
			c-17.7,1.4-35.5,2.3-53.2,4.1c-16.6,1.7-34.9,1.3-51.4-1.5c-12.2-2.1-24.4-3.3-36.4-6.7c-13.4-3.8-27.9-6.5-41.9-6.4
			c-19.9,0.1-39.3,0.2-58.3,6.8c-6.7,2.3-14.9,6.2-19.9,11.1c-11.6,11.3-13.2,39.4-1.6,51.1c19.5,19.7,61.2,27.4,88.6,27.8
			c30,0.4,59.2-1.8,89.2-3c27.9-1.2,55.8-2.9,83.7-2.8c57.1,0.1,114.3,0,171.3-3.7c53.6-3.5,107.3-2.3,161-2.3
			c55.1,0,109.7,0.4,164.4,7.5c23.8,3.1,48.1,4.2,72,6.3c21.4,1.9,42,0,63.4-1.8c17.9-1.5,35.7-6,52-13.5
			c12.9-6,35.9-24.5,39.8-38.8c11.1-39.9-156.2-39-181.9-38.9c-28.7,0.1-57.7,1-86.4,0c-12.1-0.4-24-2.7-35.8-5.2
			c-11.7-2.5-23.6-1.9-35.5-2.9c-49.7-4.4-99.4-3.7-149.2-3.7C549.5,668.2,533.2,668.1,517,668.1z"/>
	</g>
</g>
<g id="Object">
	<g>
		<g>
			<g id="XMLID_273_">
				<path class="st3" d="M329.1,243.4l6.1-4.1l6.9,3.1l3.5,6.5l-2.4,4.9l-6.2,2.7l2.2,0.8l-0.6,1.8l-9.6,3.2
					c-2-2.5-9.2-5.1-10.2-6.5l6.7-4.6L329.1,243.4z"/>
			</g>
			<g>
				<polygon class="st4" points="200.8,480.6 133.6,455.8 147.4,573.7 139.4,675.3 139.2,676 139.3,676 139.3,676.3 152.6,677.5 
					152.6,677.5 153.1,677.6 182.7,587 198.4,490.5 198.4,490.5 				"/>
				<polygon class="st5" points="151.9,682.1 138.1,681.8 134.6,693.4 135,693.5 134.9,693.5 157.6,707 168.5,708.2 169.8,695.8 
					166.9,693.7 				"/>
			</g>
			<g>
				<polygon class="st4" points="246.7,482.6 226.5,684.4 213.2,685 199.8,576 176.6,467.5 				"/>
				<polygon class="st5" points="226.4,689 244.1,699 242.4,707.4 210.9,702.6 212.8,690.6 				"/>
			</g>
			<g>
				<path class="st6" d="M278.2,533.3c4.3-3,4.3-8.1,4.3-13.3c0-9.7-1.8-19.6-4-29c-4.2-17.6-9-38.9-11.1-61.8
					c-5.4-59.1-24.1-98.7-24.1-98.7l-6-16.1c-1.2-2.1-2.4-4.2-3.7-6.2c-7.5-11.8-20.6-31.9-34.5-35.1c-0.3-0.1-0.6-0.1-0.9-0.2
					c-14.7-3.2-33.5-1.7-46.8,5.4c-2.5,1.4-4.8,3.2-7,5c-6.5,5.2-11.8,8.1-14.6,16c-2.4,6.9-3,14.5-4.3,21.7
					c-2.7,14.6-4.3,29.3-6.5,44c-4.1,27.5-7.5,55.1-11.9,82.5c-2.2,14.1-4.5,28.3-5.6,42.6c-0.9,12.6-12.3,25.4-18.7,36.8
					c-2.2,3.9,29.8,14.1,32.6,14.8c13.3,3.1,27.4,2.3,41.1,2.4c30,0.1,60-0.8,89.9-2.8c9.9-0.7,22.2-2.6,31-7.5
					C277.7,533.6,277.9,533.4,278.2,533.3z"/>
			</g>
			<path class="st7" d="M181.7,271.3c0,0-16.9-4.6-19.2,33.5c-2.3,38.1-6.2,134.5-11.7,160.9c-5.4,26.4-13.6,78.3-13.6,78.3
				l51.7,1.8l59.1-4.7c0,0-20.2-37.3-23.3-63.8c-3.1-26.4,2.3-126-10.9-163.3C200.6,276.9,197.8,272,181.7,271.3z"/>
			<g>
				<polygon class="st6" points="217,315.9 254.7,336.3 277.4,328.6 335.5,264.7 320.1,250.7 258.4,298.9 209.9,277.8 				"/>
			</g>
			<g>
				<g>
					<path class="st8" d="M205.3,241.1c2.6,7.7-1.1,15.9-4.4,22.8c-2.9,6.2-3.9,10.3,3.4,12c4.1,0.9,11.4,2.7,15-0.5
						c2.7-2.4,1.2-9.8-0.1-12.7c-1-2.2-3.7-3.4-4.7-5.6c-0.4-0.9-0.5-2-0.5-3c-0.1-4.1,0.5-8.3,1.7-12.2c0.8-2.7,1.9-5.3,2.1-8.1
						c0.3-4.1-2.5-8.8-4-12.5c-2.8-6.9-12.6-16.2-20.7-10.8c-1.9,1.2-2.9,3.3-3.9,5.4c-0.5,1.2-1.1,2.5-1.1,3.8
						c-0.1,5.3,4.8,6.2,8.2,8.8C200.5,231.6,203.6,236.2,205.3,241.1z"/>
					<path class="st3" d="M189.7,271.1c7.1-1.7,12.6-7.6,15.3-14.4c2.7-6.8,2.8-14.3,2.1-21.5c-2.5-24.1-32.5-22.6-42.6-4.1
						C155.6,247.1,169.1,275.9,189.7,271.1z"/>
				</g>
				<path class="st3" d="M189.7,268.5c-0.1,2.7-0.2,5.5-0.4,8.2c0,0.4-0.1,0.8-0.3,1.1c-0.3,0.3-0.8,0.3-1.3,0.3
					c-2.2-0.1-4.5-0.2-6.7-0.2c-1.1,0-2.3-0.1-3.2-0.6c-2.1-1.1-2.6-4.1-2.2-6.5c0.3-2.4,1.2-4.8,0.7-7.2c4.6,2.3,9-2.9,13.6-0.6
					L189.7,268.5z"/>
			</g>
			<path class="st8" d="M180,193.3c-7.9,2.7-12.9,10.6-20.6,13.8c-4.4,1.8-9.6,2.1-13.2,5.2c-8.1,7-1.6,21.8-8.2,30.2
				c-1.4,1.7-3.2,3.1-4.6,4.8c-3,3.8-3.4,8.9-3.6,13.7c-0.1,1.1-0.1,2.3,0.1,3.3c1,11.1,17.1,10.4,23.5,9.6c7-0.8,4.7-4.7,4.7-4.7
				l-0.3-0.3c-0.7-4.5,1.2-9.3,4.7-12.1c1.3-1.1,2.9-1.9,3.8-3.3c2.1-3.2,0.1-7.4,0.4-11.1c1.2-15.2,26.7-11.9,33.9-22.7
				C209.3,206.4,194.9,188.3,180,193.3z"/>
		</g>
		<g>
			<g>
				<g>
					<polygon class="st3" points="781.4,278.2 772.5,273.3 770.2,264.6 768.1,264.2 767.5,266.7 763.5,260.1 757.6,258 750.8,262.7 
						748.2,271 753.7,277.3 763.1,280.5 774.9,287.8 					"/>
				</g>
				<polygon class="st6" points="782.2,272.6 768.9,288.3 818.1,336 831.4,340.3 887.9,295.3 872.8,264.4 830.6,300.2 				"/>
			</g>
			<g>
				<g>
					<polygon class="st8" points="975,691.1 977,700.2 961.4,713.1 950.6,705.9 957.4,695 973.1,682.1 					"/>
					<polygon class="st8" points="920.4,412.9 937.8,453.1 939.4,566.3 975.3,688 958.6,695.4 885.4,554.1 877.1,509.3 873.8,415 
											"/>
				</g>
				<g>
					<polygon class="st8" points="835.9,421.9 834.5,540.5 856.9,693.4 874.1,693.4 884.9,552.3 908.4,411.2 					"/>
					<polygon class="st8" points="874,691.4 874,700.7 855.4,710 846.1,700.7 855.4,691.4 					"/>
				</g>
			</g>
			<path class="st6" d="M869.7,261.3l45.7-1.7c0,0,27.3,24,41.4,86.2c14.4,63.4-2.7,154.7-2.7,154.7s-122.5-16.3-142.6-18.8
				l30.6-125.2L869.7,261.3z"/>
			<g>
				<path class="st3" d="M886.1,266c5.3-0.5,10.7-1,16-1.6c0.1-4.3-0.2-8.5-0.8-12.8c4.4-1.6,9.6-3.9,10.4-8.5c0.2-1.5,0-3-0.3-4.4
					c-1-6-2.1-12.1-3.1-18.1c-0.4-2.1-0.7-4.2-1.9-6c-2-3.1-5.9-4.5-9.5-5.2c-9.4-1.6-19.6,0.4-26.8,6.5c-1.9,1.6-3.7,3.6-4.5,6
					c-1.3,3.7-0.3,7.7,0.6,11.5c0.9,3.5,1.8,7,2.7,10.4c1,4,2.6,8.6,6.4,10.1c2,0.8,4.5,0.6,6.3,1.8
					C884.9,257.6,884.4,262.5,886.1,266z"/>
				<path class="st8" d="M834,205.6c-0.1-4.1,0.5-8.3,1.3-12.1c1.4-6.5,9.1-9.4,15.7-9.9c14.3-1,28.1-7.5,42.1-2.5
					c8,2.9,18.7,3.6,26,7.6c3,1.7,5.4,4.3,7.3,7.2c6.5,10.1,6.5,23.9,0,34c-1.5,2.3-3.2,4.3-5,6.3c-3.8,4.1-8.3,9.1-13.5,10.6
					c-0.1-4.6,4.1-19.3,0.6-23.1c-5.7-6-18.4-4-25.5-2.5c-7.7,1.6-14.5,7-22.1,8.2c-5.5,0.8-12.4-1.9-17.1-4.7
					C836.6,220.4,834.2,213.1,834,205.6z"/>
			</g>
			<path class="st9" d="M882.3,267l-48,192l-3.9,25.2l59.8,7.9c0,0-2.4-91.9-1.6-104.2c0.8-12.3,9.7-38.8,11-67.3
				c0.8-16.5,6-46.2,2.4-55.9L882.3,267z"/>
		</g>
		<path class="st10" d="M489.7,479.8l0,52c0.2-1,0.4-2.1,0.4-3.3v-82.3h-0.4L489.7,479.8z"/>
		<path class="st10" d="M489.7,409.9l0-50.9c-0.2,1.1-0.4,2.2-0.4,3.3v81.5h0.4L489.7,409.9L489.7,409.9z"/>
		<path class="st10" d="M474.4,594c-1.9,0.2-3.8,0.8-5.6,1.8c-5.6,3.2-11.1,6.2-16.8,8.1c5.6-1.8,11.1-4.8,16.8-8
			C470.7,595,472.6,594.4,474.4,594z"/>
		<path class="st10" d="M527.3,358.1c-5.6-1.9-11.2-4.9-16.8-8.1c-1.8-1-3.7-1.6-5.6-1.8c1.8,0.3,3.7,1,5.5,2
			C516.2,353.2,521.7,356.2,527.3,358.1z"/>
		<path class="st10" d="M489.6,604.9l0,107.6c0.1,0,0.3,0,0.4,0V608.2C490.1,607,489.9,605.9,489.6,604.9z"/>
		<path class="st10" d="M338.6,424.4c1.5,2.5,2.2,5.2,2.1,7.8c0.3-2.9-0.3-6.1-2.1-8.9c-5.7-9.2-9.4-19.4-9.4-29.1
			C328.9,404.2,332.6,414.8,338.6,424.4z"/>
		<path class="st10" d="M404.1,396.8c-0.5,9.3-5.1,18.1-10.2,26.9c-1.3,2.3-1.9,4.7-1.9,7.1c0.2-2,0.7-4,1.8-5.9
			C399.2,415.7,404,406.5,404.1,396.8z"/>
		<path class="st10" d="M489.7,285.9l0-52l0-58.7c-0.1,0-0.3,0-0.4,0v107.4C489.3,283.7,489.4,284.8,489.7,285.9z"/>
		<path class="st11" d="M474.4,594c-1.8,0.3-3.7,1-5.5,2c-5.8,3.1-11.3,6.1-16.8,8c-8.4,2.8-17,3.3-26.2-1.7
			c-18.8-10.2-25.8-35.6-14.9-54c13.4-22.7,37.7-19.9,57.4-7.7c8.5,5.3,19.2,0.3,21.3-8.8l0-52l0-33.6h0v-2.4h-0.4v1.9h-86.8
			c-6.7-1.8-11-8.2-10.5-14.8c0-2.4,0.6-4.8,1.9-7.1c5.1-8.9,9.7-17.7,10.2-26.9c0-4.8-1-9.7-3.8-14.8c-10.2-18.8-35.5-25.8-54-15
			c-11.7,6.9-16.6,16.6-17,27.2c0,9.6,3.6,19.9,9.4,29.1c1.8,2.9,2.4,6,2.1,8.9c-0.1,6.2-4.4,12-10.7,13.5h-52.3h-23.1
			c-0.3,0.4-0.5,0.8-0.8,1.1c-6.5,10.6-5.2,18.6,4.5,25.3c6.2,4.3,12.8,8,18.2,13.5c8.3,8.5,8.9,13.5,2.5,24
			c-7.2,11.8-7.1,12.3,3.9,20.7c2.9,2.3,6.1,4,1.9,8.2c-6.1,6.3-3.9,12.4,1.3,17c7.4,6.4,8.5,14.7,7.1,23.9c-1.2,8-3,16-4.5,24
			c-4.1,21.5,1.6,31.6,21.1,37.2c20.3,5.9,40.5,0.8,60.8-1.2c13.6-1.3,27-6,40.9-2.6c9,2.2,14,7.8,15.2,17.9
			c1.7,14.7,6.1,28.8,8.6,43.3c2,11.8,7.2,15.5,17.8,15c8.9-0.4,21.7-0.6,36.5-0.6l0-107.6C488,597.9,481.3,593.3,474.4,594z"/>
		<path class="st8" d="M563.1,243c4.2,8.4,15.8,10.7,22.8,3.6c16.3-16.5,39.3-24.9,57.6-5.9c14.8,15.4,13.9,41.7-2,56
			c-7.8,7-16.3,8.6-25.1,7.8c-5.8-0.5-11.9-2.1-18.2-3.8c-2-0.5-4-0.7-5.8-0.6c-6.9,0.9-12.4,6.9-12.3,14.1l11.8,49.5l0,0l7.9,33
			l0,0l0.3,1.2l0.3,1.1l0.4-0.1l85.4-20.4c8.4,0.9,14.6,9.3,12,18.1c-4.5,15.3-8,30.2,3.7,43.3c14.3,15.9,40.6,16.9,56,2
			c19-18.3,10.7-41.3-5.8-57.6c-6.7-6.7-5-17.4,2.3-22l52.2-12.5c2.7-19.3,2.5-38.2-0.6-56c-9-45.7-26.8-81.1-54.8-106.8
			c-57.5-52.7-123.9-67.1-194.3-55.9c-6.6,1.1-13.1,2.5-19.5,4.3l13.6,57.1L563.1,243z"/>
		<polygon class="st7" points="489.7,443.8 489.7,443.8 489.7,446.2 489.7,446.2 489.7,445 		"/>
		<path class="st9" d="M650.7,713.1c12.7-0.7,6.5-8.6,0.7-20.9c-47.6-100,9.1-180.6,18.4-191.9c13.9-16.9,24.6-35.3,32-54.2H648
			c-8.2,2.9-12.3,12.9-7.3,20.9c12.3,19.7,15.1,44-7.7,57.4c-18.5,10.8-43.8,3.9-54-15c-8.4-15.5-1.5-29.1,6.4-42.9
			c4.6-8,0.4-17.5-7.5-20.4h-87.8v82.3c0,1.1-0.2,2.2-0.4,3.3v0.4c-2.2,9-12.8,13.8-21.3,8.6c-19.7-12.3-44-15.1-57.4,7.7
			c-10.8,18.5-2.8,43.3,16,53.6c9.1,4.9,17.1,4.6,25.1,2c5.6-1.9,11.2-4.9,16.8-8.1c1.8-1,3.7-1.6,5.6-1.8
			c7.2-1.3,13.6,2.7,15.3,10.6v0.2c0.2,1.1,0.4,2.2,0.4,3.3v104.2C547.4,712.2,635,714,650.7,713.1z"/>
		<path class="st9" d="M489.6,604.9v-0.2c-1.6-7.9-8-11.9-15.3-10.6C481.3,593.3,488,597.9,489.6,604.9z"/>
		<path class="st9" d="M468.3,540.6c-19.7-12.3-44-15.1-57.4,7.7c-10.9,18.4-3.9,43.8,14.9,54c9.2,5,17.8,4.6,26.2,1.7
			c-7.9,2.6-16,2.9-25.1-2c-18.8-10.2-26.8-35.1-16-53.6c13.4-22.8,37.7-20,57.4-7.7c8.4,5.3,19.1,0.4,21.3-8.6v-0.4
			C487.5,540.9,476.8,545.9,468.3,540.6z"/>
		<path class="st7" d="M568.4,302.3c-13.4-22.7-37.7-19.9-57.4-7.7c-8.5,5.3-19.2,0.3-21.3-8.8c-0.2-1-0.4-2.1-0.4-3.3V175.2
			c-29.3,1.3-57.9,10.2-85.2,23.6c-7.4,3.6-14.6,7.6-21.8,11.6c-50.3,28.5-78.4,72.3-76,136.4c1.3,36-14.7,62.2-38.4,84.2
			c-4.3,4-8.5,7.9-12,12.7c-0.5,0.6-0.9,1.3-1.3,1.9h23.1H330c6.3-1.6,10.6-7.3,10.7-13.5c0.1-2.6-0.6-5.3-2.1-7.8
			c-6-9.6-9.7-20.2-9.3-30.2c0.4-10.5,5.3-20.3,17-27.2c18.5-10.8,43.8-3.9,54,15c2.8,5.1,3.9,10,3.8,14.8
			c-0.1,9.7-4.9,18.9-10.2,28.1c-1.1,1.9-1.7,3.9-1.8,5.9c-0.5,6.7,3.8,13.1,10.5,14.8h86.8v-1.9v-81.5c0-1.2,0.2-2.3,0.4-3.3
			c1.6-7,8.4-11.6,15.3-10.8c1.9,0.2,3.8,0.8,5.6,1.8c5.6,3.2,11.1,6.2,16.8,8.1c8.4,2.8,17,3.3,26.2-1.7
			C572.3,346.1,579.3,320.8,568.4,302.3z"/>
		<g>
			<polygon class="st6" points="922.6,296.2 864.2,351.3 777.5,325.5 771.3,345 866.6,388.6 891.6,388.6 944.6,343.5 			"/>
			<polygon class="st3" points="771.9,343.2 756.8,343.5 747.6,330.5 771,317.5 777.5,325.5 			"/>
		</g>
		<g>
			<polygon class="st3" points="287.2,376.2 286.9,385 302.4,390.7 311.3,383.9 311.4,373.6 302.7,373.2 302.4,370.9 299.6,369.1 
							"/>
			<path class="st6" d="M157.7,310.5l64,54.5l68,1.3c0,0-2.8,29.2-2.7,26.8c0-2.4-75.3,7.3-75.3,7.3l-66.8-47.2L157.7,310.5z"/>
		</g>
	</g>
</g>
</svg>
