<?xml version="1.0" encoding="utf-8"?>
<!-- Generator: Adobe Illustrator 25.2.1, SVG Export Plug-In . SVG Version: 6.00 Build 0)  -->
<svg version="1.1" id="Layer_1" xmlns="http://www.w3.org/2000/svg" xmlns:xlink="http://www.w3.org/1999/xlink" x="0px" y="0px"
	 viewBox="0 0 512 512" style="enable-background:new 0 0 512 512;" xml:space="preserve">
<style type="text/css">
	.st0{fill:#FF4FAA;}
</style>
<g>
	<path class="st0" d="M41.1,240.2V83.8h52.6c50.8,0,62.8,26.2,62.8,75.5c0,50.2-10.6,80.9-62.8,80.9H41.1z M93.8,214.8
		c31,0,35.5-23.3,35.5-55.6c0-32.1-4.5-50.2-35.5-50.2H67.3v105.7H93.8z"/>
	<path class="st0" d="M183.2,83.8h26.7v156.4h-26.7V83.8z"/>
	<path class="st0" d="M234.8,125.8c0-29.8,20.6-44.7,54.2-44.7c17.4,0,46.8,5.6,46.8,5.6l-2,23.7c0,0-31.6-3.6-44.7-3.6
		c-18.5,0-27.8,5.9-27.8,18.5c0,13.3,7.7,16.7,33.9,24.2c32.5,9.5,44.1,18.3,44.1,45.6c0,32.5-21.7,47.4-53.3,47.4
		c-17.2,0-47.7-5.9-47.7-5.9l2.7-23.7c0,0,28.7,3.8,44.7,3.8c18.5,0,26.9-5.9,26.9-21c0-12.2-6.6-16.9-29.8-22.8
		C248.8,164.2,234.8,153.8,234.8,125.8z"/>
	<path class="st0" d="M356.8,162.2c0-56.9,13.8-80.9,58.1-80.9c19.7,0,44.5,6.1,44.5,6.1l-0.9,23.3c0,0-26.4-3.4-40-3.4
		c-27.3,0-34.3,13.1-34.3,54.9c0,39.8,5.4,54.5,35.2,54.5c12.2,0,39.1-3.6,39.1-3.6l0.7,24c0,0-26.4,5.6-44.3,5.6
		C367.6,242.6,356.8,215.5,356.8,162.2z"/>
	<path class="st0" d="M134.9,260.4v25.5H92v130.8H65.3V285.9H21.9v-25.5H134.9z"/>
	<path class="st0" d="M248.1,260.4v25.3h-71.4v40.9h57.8v24.9h-57.8v40h71.4v25.3h-97.6V260.4H248.1z"/>
	<path class="st0" d="M266.8,302.4c0-29.8,20.6-44.7,54.2-44.7c17.4,0,46.8,5.6,46.8,5.6l-2,23.7c0,0-31.6-3.6-44.7-3.6
		c-18.5,0-27.8,5.9-27.8,18.5c0,13.3,7.7,16.7,33.9,24.2c32.5,9.5,44.1,18.3,44.1,45.6c0,32.5-21.7,47.5-53.3,47.5
		c-17.2,0-47.7-5.9-47.7-5.9l2.7-23.7c0,0,28.7,3.8,44.7,3.8c18.5,0,26.9-5.9,26.9-21c0-12.2-6.6-16.9-29.8-22.8
		C280.9,340.8,266.8,330.4,266.8,302.4z"/>
	<path class="st0" d="M490.1,260.4v25.5h-42.9v130.8h-26.7V285.9h-43.4v-25.5H490.1z"/>
</g>
</svg>
